<?xml version="1.0" encoding="utf-8"?>
<!-- Generator: Adobe Illustrator 18.1.0, SVG Export Plug-In . SVG Version: 6.00 Build 0)  -->
<svg version="1.1" xmlns="http://www.w3.org/2000/svg" xmlns:xlink="http://www.w3.org/1999/xlink" x="0px" y="0px"
	 viewBox="0 0 1190.6 841.9" enable-background="new 0 0 1190.6 841.9" xml:space="preserve">
<g id="背景_xA0_Image_1_" display="none">
</g>
<g id="G.S.M">
	<g>
		<path fill="#FAD694" d="M393.9,444.7c7.3,0,13.5,2.6,18.7,7.8c5.2,5.2,7.8,11.4,7.8,18.7c0,7.4-2.6,13.7-7.8,18.9
			c-5.2,5.2-11.4,7.8-18.7,7.8c-7.4,0-13.7-2.6-18.9-7.8c-5.2-5.2-7.8-11.5-7.8-18.9c0-7.3,2.6-13.5,7.8-18.7
			C380.2,447.3,386.5,444.7,393.9,444.7z"/>
		<path fill="#FAD694" d="M784.3,444.7c7.3,0,13.5,2.6,18.7,7.8c5.2,5.2,7.8,11.4,7.8,18.7c0,7.4-2.6,13.7-7.8,18.9
			c-5.2,5.2-11.4,7.8-18.7,7.8c-7.4,0-13.7-2.6-18.9-7.8c-5.2-5.2-7.8-11.5-7.8-18.9c0-7.3,2.6-13.5,7.8-18.7
			C770.6,447.3,776.9,444.7,784.3,444.7z"/>
		<path fill="#FAD694" d="M948.1,227.6l38.5,109.6l17-59.2v64.8l-45.1,151.4h-10.4l-75.8-224.8c-2.6-7.5-5.3-12.6-8.2-15.2
			c-1.7-1.7-4.6-2.9-8.8-3.7c-8.5-1.8-12.7-5.9-12.7-12.1c0-3.4,1.2-6,3.6-7.9c2.4-1.9,5.9-2.8,10.4-2.8H948.1z M872.3,317.4
			l20.7,59v58.8c0,6,0.2,10.3,0.7,12.9c0.5,2.6,1.5,5.5,3,8.6c2.7,5.7,6.5,10,11.3,12.9l7.2,4.7c4.9,3,7.4,6.3,7.4,10
			c0,6.6-4.9,10-14.6,10h-49c-9.8,0-14.6-3.3-14.6-9.8c0-2.1,0.4-3.7,1.3-4.8c0.8-1.1,2.5-2.4,5-3.8c14.5-7.8,21.7-21.4,21.7-40.6
			V317.4z M1020,227.6h86.7h5.3c9.8,0,14.6,3.4,14.6,10.2c0,5.3-2.6,8.9-7.8,10.5c-4.3,1.4-6.8,2.3-7.5,2.6
			c-0.7,0.3-1.5,1.1-2.2,2.2c-1.6,2.1-2.3,5.4-2.3,10v195.5c0,4.6,0.8,7.9,2.3,10c0.8,1.2,1.5,1.9,2.2,2.2c0.7,0.3,3.2,1.2,7.5,2.6
			c5.2,1.7,7.8,5.2,7.8,10.5c0,6.8-4.9,10.2-14.6,10.2h-5.3h-86.9h-6.4c-5.7,0-10.1-0.9-13-2.6c-2.9-1.8-4.4-4.4-4.4-7.9
			c0-5.7,3.1-9.3,9.4-10.7c5.1-1.3,8.1-2.1,9-2.4c0.9-0.3,1.8-1.1,2.7-2.2c2-2.3,2.9-6.1,2.9-11.1V227.6z"/>
	</g>
	<g>
		<path fill="#FAD694" d="M194.9,222.3V244c-14.2,2.7-21.3,11.9-21.3,27.3v181.8c0,7,1.2,12.4,3.6,16.2c2.1,3.1,6.5,5.8,13.3,8v22.1
			c-5.2,0-9.9-0.3-14.1-1c-4.3-0.7-9.9-2-17-3.9c-16.9-4.7-32.2-11.8-45.9-21.5c-13.7-9.6-25-21.2-33.8-34.6
			c-13.7-21-20.5-45.8-20.5-74.4c0-27.7,6.1-52.3,18.4-73.8c12.2-21.5,29.8-38.3,52.6-50.6c13.2-7.2,27.4-12.3,42.5-15.4
			C178.9,223,186.3,222.3,194.9,222.3z M323.8,461.6c-6.4,5.2-15,10.5-25.7,15.9c-10.7,5.4-20.8,9.7-30.3,12.8
			c-8.7,2.7-18.3,4.9-28.9,6.6c-10.5,1.7-19.8,2.5-27.9,2.5v-22.1c4.7-0.9,8.2-2,10.5-3.3c2.3-1.3,4.3-3.1,5.9-5.5
			c2.7-4,4.1-9.2,4.1-15.4v-57c0-5.1-1.2-8.7-3.6-10.9c-1.1-1.3-2.3-2.1-3.4-2.4c-1.1-0.3-4.8-1.1-11.1-2.2
			c-7.7-1.6-11.6-5.2-11.6-10.9c0-3.4,1.8-6,5.4-7.8c3.6-1.8,9-2.7,16.1-2.7h8h88.4c7.2,0,12.4,0.8,15.3,2.4c3,1.6,4.5,4.5,4.5,8.5
			c0,2.5-0.6,4.5-1.8,6.2c-1.2,1.6-3.4,3.4-6.6,5.2c-3.2,1.8-5.2,3.5-6,5.1c-0.8,1.6-1.2,4.4-1.2,8.6V461.6z M214.7,243.6v-21.1
			c26.2,2,47.8,5.9,64.7,11.7c5,1.8,8.9,2.7,11.6,2.7c2.6,0,4.5-0.5,5.9-1.5c1.4-1,4.1-3.7,8.3-8.3c2.9-3.3,6.5-4.9,10.9-4.9
			c4.5,0,7.7,1,9.5,3c1.8,2,2.8,5.4,2.8,10.1v76c0,9.9-4.5,14.8-13.5,14.8c-4.5,0-7.8-1-10-2.9c-2.2-2-4.2-5.8-6.2-11.5
			c-2.4-7.3-6.8-15.8-13-25.5c-6.3-9.7-12.3-17.3-18.1-22.9c-6.6-6.5-14-11.3-22.2-14.4C237.1,245.9,226.9,244.1,214.7,243.6z"/>
	</g>
	<g>
		<path fill="#FAD694" d="M596.9,222.3v22.5c-10,2.2-17.6,5.6-22.8,10.3c-5.2,4.6-7.8,10.3-7.8,17.1c0,6.5,2.2,12.2,6.5,17.1
			c4.3,4.9,11.4,9.5,21.3,14c6.8,3,22.1,8.7,45.9,17.2c14.5,5.1,25.7,9.7,33.7,13.8c8,4.1,15.5,9.2,22.6,15.3
			c19,16.1,28.5,35.4,28.5,57.6c0,16.8-5.2,32.2-15.5,46.1c-10.3,13.9-24.5,24.9-42.5,32.8c-9.7,4.2-20.2,7.5-31.8,9.9
			c-11.5,2.4-22.3,3.6-32.2,3.6v-22.3c14-2.7,24.1-6.5,30.3-11.4c6.2-4.9,9.3-11.5,9.3-19.8c0-8.7-4.8-16.4-14.5-23
			c-6.4-4.3-18.7-9.6-36.7-16c-19.8-7-33.4-12-40.7-15c-7.3-3-14.4-6.5-21.1-10.5c-30.3-17.4-45.4-40.7-45.4-69.7
			c0-14.8,3.8-28.5,11.4-41.1c7.6-12.6,18.1-22.7,31.6-30.4C545.7,229.4,569,223.5,596.9,222.3z M584.3,477.2v22.3
			c-13.2,0-27.8-3.1-43.7-9.2c-6-2.2-10.1-3.6-12.3-4.3c-2.3-0.7-4.4-1-6.5-1c-3.2,0-5.6,0.4-7.2,1.3c-1.6,0.8-4.2,3-7.7,6.3
			c-2.9,2.9-6,4.3-9.4,4.3c-9,0-13.5-5.6-13.5-16.8V409c0-3.6,1.3-6.7,3.9-9.3c2.6-2.5,5.8-3.9,9.7-4c3.5-0.1,6.3,0.7,8.3,2.4
			c2,1.8,3.7,4.9,5.2,9.3c3.7,11.2,9.1,21.7,16.1,31.4c7,9.8,15.2,18,24.5,24.8C561,470.8,571.9,475.3,584.3,477.2z M616,244.8
			v-21.5c9.7,0.5,18,1.5,25.1,3c7.1,1.5,17.1,4.5,30.2,8.9c3.2,1,5.9,1.6,8,1.6c3.1,0,5.3-0.8,6.8-2.5l5.3-5.7
			c2.6-2.9,5.7-4.3,9.4-4.3c4.3,0,7.5,1.3,9.5,3.8c2,2.5,3,6.5,3,12v64.5c0,3.8-1.3,6.9-4,9.3c-2.7,2.4-6.1,3.6-10.3,3.6
			c-3.2,0-6.2-0.8-8.9-2.5c-1.4-1-2.6-2.3-3.5-3.8c-0.9-1.5-1.7-4-2.5-7.5c-1.8-6.4-4.8-13-9.2-19.7c-4.3-6.8-9.4-12.8-15.2-18.2
			C648.1,255.1,633.5,248.2,616,244.8z"/>
	</g>
</g>
<g id="Ars_longa._vita_brevis.传艺永恒">
	<g>
		<path fill="#FAD694" d="M108.9,583.9H92.7l-3.9,11H78.7l18.7-51.8h7.5l18.8,51.8H113L108.9,583.9z M95.5,575.3h10.9l-3.7-10.7
			l-1.6-8.2h-0.3l-1.6,8.2L95.5,575.3z"/>
		<path fill="#FAD694" d="M149.8,565.7c-1.4-0.5-2.7-0.7-4.1-0.7c-2,0-3.7,0.5-5,1.5c-1.3,1-2.2,2.3-2.6,3.9v24.5h-9.6v-38.6h7.5
			l1,5.4h0.9c0.9-2,2.1-3.6,3.7-4.6c1.5-1.1,3.3-1.6,5.2-1.6c1.2,0,2.6,0.3,4.2,0.8L149.8,565.7z"/>
		<path fill="#FAD694" d="M156.3,584.9c0.6,0.3,1.4,0.7,2.2,1c0.8,0.3,1.8,0.7,2.7,1c1,0.3,2,0.5,3,0.7c1,0.2,2.1,0.3,3.1,0.3
			c1.6,0,2.8-0.3,3.7-0.8c0.9-0.5,1.3-1.5,1.3-3c0-1.2-0.6-2-1.8-2.6c-1.2-0.6-2.6-1.1-4.4-1.7c-1.3-0.4-2.6-0.9-4-1.4
			c-1.4-0.5-2.7-1.3-3.8-2.2c-1.2-0.9-2.1-2.1-2.9-3.6c-0.8-1.5-1.1-3.3-1.1-5.6c0-3.9,1.1-6.8,3.4-8.9c2.2-2,5.4-3.1,9.6-3.1
			c2.7,0,5.3,0.3,7.7,0.8c2.4,0.5,4.3,1.1,5.8,1.8l-2,7.8c-1.2-0.5-2.7-1-4.5-1.5c-1.8-0.5-3.7-0.8-5.6-0.8c-1.6,0-2.8,0.3-3.6,0.8
			c-0.8,0.5-1.2,1.4-1.2,2.7c0,1.1,0.6,2,1.8,2.5c1.2,0.6,2.7,1.1,4.4,1.7c1.3,0.4,2.6,0.8,4,1.4c1.4,0.5,2.7,1.2,3.8,2.1
			c1.1,0.9,2.1,2,2.8,3.4c0.8,1.4,1.1,3.2,1.1,5.3c0,4.1-1.2,7.3-3.7,9.6c-2.5,2.3-6.2,3.4-11.2,3.4c-2.7,0-5.2-0.3-7.5-0.8
			c-2.3-0.5-4.2-1.3-5.7-2.2L156.3,584.9z"/>
		<path fill="#FAD694" d="M218.1,581.4c0,3.7,1.1,5.6,3.4,5.6c0.6,0,1.2-0.1,1.8-0.2c0.6-0.1,1.2-0.3,2-0.6l1.2,8
			c-0.9,0.4-2.2,0.9-3.9,1.3c-1.7,0.4-3.4,0.6-5.2,0.6c-2.9,0-5.1-0.7-6.6-2.1c-1.5-1.4-2.3-3.6-2.3-6.8v-43.8h9.6V581.4z"/>
		<path fill="#FAD694" d="M229.3,575.6c0-6.4,1.6-11.4,4.7-15c3.1-3.6,7.6-5.4,13.5-5.4c3.1,0,5.7,0.5,8,1.5c2.3,1,4.2,2.5,5.7,4.3
			c1.5,1.8,2.6,4,3.4,6.5c0.8,2.5,1.1,5.2,1.1,8.1c0,3.1-0.4,6-1.2,8.5c-0.8,2.5-2,4.7-3.6,6.4c-1.6,1.8-3.5,3.1-5.7,4
			c-2.3,0.9-4.8,1.4-7.7,1.4c-3.1,0-5.8-0.5-8.1-1.5c-2.3-1-4.2-2.5-5.7-4.3s-2.6-4-3.4-6.5C229.7,581.2,229.3,578.5,229.3,575.6z
			 M239.2,575.6c0,1.6,0.2,3.1,0.5,4.6c0.3,1.4,0.8,2.7,1.5,3.7c0.7,1.1,1.5,1.9,2.6,2.5c1,0.6,2.3,1,3.8,1c5.6,0,8.3-3.9,8.3-11.8
			c0-1.7-0.1-3.3-0.4-4.7c-0.3-1.4-0.8-2.7-1.4-3.7c-0.7-1.1-1.5-1.9-2.6-2.5c-1.1-0.6-2.4-0.9-3.9-0.9c-2.6,0-4.6,0.9-6.1,2.8
			C239.9,568.5,239.2,571.5,239.2,575.6z"/>
		<path fill="#FAD694" d="M297.7,594.9v-21.2c0-3.3-0.5-5.7-1.4-7.2c-1-1.5-2.6-2.2-5.1-2.2c-2.1,0-3.8,0.6-5.2,1.8
			c-1.4,1.2-2.4,2.7-3,4.6c0,4,0,8,0,12.1c0,4,0,8.1,0,12.1h-9.6v-38.6h7.5l1,5.5h1c1.2-1.8,2.8-3.4,4.7-4.7c2-1.3,4.5-1.9,7.7-1.9
			c1.9,0,3.6,0.3,5.1,0.8c1.5,0.5,2.7,1.4,3.7,2.6c1,1.3,1.7,2.9,2.3,5c0.5,2.1,0.8,4.8,0.8,7.9v23.3H297.7z"/>
		<path fill="#FAD694" d="M349.6,593.4c0,5.7-1.5,9.9-4.5,12.6c-3,2.7-7.3,4-12.8,4c-3.6,0-6.4-0.3-8.6-0.8c-2.2-0.5-3.8-1.1-5-1.7
			c0.6-2,1-3.5,1.3-4.7c0.3-1.2,0.5-2,0.6-2.6c0.1-0.6,0.3-1,0.3-1.3c1.1,0.6,2.4,1.2,4,1.8c1.5,0.6,3.4,0.9,5.7,0.9
			c1.9,0,3.4-0.2,4.7-0.6c1.2-0.4,2.2-1,2.9-1.7c0.7-0.8,1.2-1.7,1.5-2.8c0.3-1.1,0.4-2.3,0.4-3.6v-2.9h-0.8c-0.9,1.4-2.2,2.4-3.8,3
			c-1.6,0.6-3.6,0.9-6,0.9c-4.9,0-8.5-1.4-11-4.3c-2.4-2.9-3.7-7.5-3.7-14c0-6.8,1.6-11.9,4.8-15.3c3.2-3.4,8-5.1,14.3-5.1
			c3.3,0,6.3,0.2,8.9,0.7c2.6,0.5,4.8,1,6.5,1.6V593.4z M332,586c2.1,0,3.8-0.4,5.2-1.3c1.3-0.8,2.3-1.9,2.9-3.1v-16.6
			c-1.7-0.8-3.8-1.2-6.4-1.2c-2.8,0-4.9,0.9-6.4,2.6c-1.5,1.8-2.3,4.7-2.3,8.7c0,3.7,0.6,6.4,1.9,8.2C328.1,585.1,329.8,586,332,586
			z"/>
		<path fill="#FAD694" d="M359.1,559c2.1-1,4.6-1.8,7.6-2.4c3-0.6,6.1-1,9.3-1c2.5,0,4.6,0.3,6.3,1c1.7,0.6,3.1,1.6,4.1,2.8
			c1,1.2,1.7,2.6,2.2,4.3c0.4,1.7,0.6,3.6,0.6,5.6c0,2.5-0.1,5-0.3,7.4c-0.2,2.5-0.3,5-0.3,7.8c0,1.9,0.1,3.7,0.3,5.4
			c0.2,1.8,0.6,3.5,1.1,5.1h-7.8l-1.6-5.7h-0.8c-1.2,1.7-2.7,3.2-4.5,4.4c-1.8,1.2-4.2,1.8-7,1.8c-1.7,0-3.3-0.3-4.8-0.8
			c-1.4-0.5-2.7-1.3-3.7-2.3c-1-1-1.8-2.2-2.4-3.6c-0.6-1.4-0.9-2.9-0.9-4.5c0-4.4,1.4-7.7,4.1-9.9c2.7-2.2,6.8-3.3,12.3-3.3
			c1.3,0,2.6,0.1,3.8,0.3c1.3,0.2,2.2,0.4,2.7,0.5c0.1-1,0.2-1.9,0.2-2.6c0-1.9-0.4-3.2-1.3-4.1c-0.9-0.9-2.5-1.3-4.9-1.3
			c-2.2,0-4.3,0.3-6.4,0.8c-2.1,0.6-3.9,1.3-5.5,2.1L359.1,559z M371.7,587.3c2.1,0,3.9-0.5,5.1-1.6c1.3-1.1,2.2-2.2,2.8-3.4v-4.4
			c-0.2-0.1-0.6-0.2-1.1-0.3c-0.5-0.1-1-0.2-1.6-0.3c-0.6-0.1-1.1-0.2-1.7-0.2c-0.6,0-1.1-0.1-1.5-0.1c-2.5,0-4.3,0.5-5.5,1.4
			c-1.2,1-1.8,2.1-1.8,3.6c0,1.8,0.5,3.1,1.4,4C368.8,586.8,370.1,587.3,371.7,587.3z"/>
		<path fill="#FAD694" d="M397.3,589.9c0-1.8,0.5-3.2,1.6-4.3c1.1-1,2.5-1.5,4.3-1.5c1.8,0,3.3,0.5,4.4,1.5c1.1,1,1.6,2.5,1.6,4.3
			c0,1.7-0.5,3.1-1.6,4.2c-1.1,1.1-2.6,1.6-4.4,1.6c-1.8,0-3.2-0.5-4.3-1.6C397.9,593,397.3,591.6,397.3,589.9z"/>
		<path fill="#FAD694" d="M447.1,576.3l1.4,6h1.1l1-6.1l6.7-19.8h10.3l-16.4,39h-5.5l-17.1-39h11.1L447.1,576.3z"/>
		<path fill="#FAD694" d="M471.5,548c0-1.6,0.5-2.9,1.6-3.9c1-1.1,2.5-1.6,4.4-1.6c2,0,3.5,0.5,4.7,1.6c1.1,1.1,1.7,2.4,1.7,3.9
			c0,1.4-0.6,2.6-1.7,3.7c-1.1,1-2.7,1.5-4.7,1.5c-1.9,0-3.4-0.5-4.4-1.5C472,550.6,471.5,549.4,471.5,548z M473,556.3h9.6v38.6H473
			V556.3z"/>
		<path fill="#FAD694" d="M489.1,556.3h5.5V551l9.6-2.7v8h9.6v8.6h-9.6v13.4c0,3.1,0.3,5.3,0.9,6.7c0.6,1.3,1.7,2,3.4,2
			c1,0,1.9-0.1,2.7-0.3c0.7-0.2,1.5-0.5,2.3-0.8l2,7.7c-1.5,0.7-3.1,1.3-5,1.8c-1.9,0.5-3.7,0.7-5.5,0.7c-3.6,0-6.2-0.9-7.8-2.8
			c-1.6-1.9-2.5-4.9-2.5-9.1v-19.3h-5.5V556.3z"/>
		<path fill="#FAD694" d="M520.8,559c2.1-1,4.6-1.8,7.6-2.4c3-0.6,6.1-1,9.3-1c2.5,0,4.6,0.3,6.3,1c1.7,0.6,3.1,1.6,4.1,2.8
			c1,1.2,1.7,2.6,2.2,4.3c0.4,1.7,0.6,3.6,0.6,5.6c0,2.5-0.1,5-0.3,7.4c-0.2,2.5-0.3,5-0.3,7.8c0,1.9,0.1,3.7,0.3,5.4
			c0.2,1.8,0.6,3.5,1.1,5.1h-7.8l-1.6-5.7h-0.8c-1.2,1.7-2.7,3.2-4.5,4.4c-1.8,1.2-4.2,1.8-7,1.8c-1.7,0-3.3-0.3-4.8-0.8
			c-1.4-0.5-2.7-1.3-3.7-2.3c-1-1-1.8-2.2-2.4-3.6c-0.6-1.4-0.9-2.9-0.9-4.5c0-4.4,1.4-7.7,4.1-9.9c2.7-2.2,6.8-3.3,12.3-3.3
			c1.3,0,2.6,0.1,3.8,0.3c1.3,0.2,2.2,0.4,2.7,0.5c0.1-1,0.2-1.9,0.2-2.6c0-1.9-0.4-3.2-1.3-4.1c-0.9-0.9-2.5-1.3-4.9-1.3
			c-2.2,0-4.3,0.3-6.4,0.8c-2.1,0.6-3.9,1.3-5.5,2.1L520.8,559z M533.3,587.3c2.1,0,3.9-0.5,5.1-1.6c1.3-1.1,2.2-2.2,2.8-3.4v-4.4
			c-0.2-0.1-0.6-0.2-1.1-0.3c-0.5-0.1-1-0.2-1.6-0.3c-0.6-0.1-1.1-0.2-1.7-0.2c-0.6,0-1.1-0.1-1.5-0.1c-2.5,0-4.3,0.5-5.5,1.4
			c-1.2,1-1.8,2.1-1.8,3.6c0,1.8,0.5,3.1,1.4,4C530.4,586.8,531.7,587.3,533.3,587.3z"/>
		<path fill="#FAD694" d="M579.6,543.4h9.6v16.2h0.8c1.1-1.3,2.5-2.4,4.2-3.1c1.7-0.8,3.6-1.1,5.6-1.1c4.7,0,8.2,1.6,10.6,4.9
			c2.4,3.3,3.7,8,3.7,14.3c0,3.4-0.4,6.4-1.3,9c-0.9,2.6-2.2,4.9-3.8,6.7c-1.6,1.8-3.6,3.2-6,4.2c-2.4,1-5,1.4-8,1.4
			c-3.4,0-6.5-0.3-9.2-0.8c-2.7-0.5-4.8-1.1-6.2-1.7V543.4z M589.2,586.2c0.9,0.5,1.9,0.8,2.9,0.9c1,0.1,2.1,0.2,3.3,0.2
			c5.9,0,8.9-4.2,8.9-12.5c0-3.5-0.6-6.2-1.8-8c-1.2-1.8-3.1-2.8-5.5-2.8c-2.1,0-3.7,0.5-5,1.5c-1.3,1-2.2,2.5-2.8,4.6V586.2z"/>
		<path fill="#FAD694" d="M643.1,565.7c-1.4-0.5-2.7-0.7-4.1-0.7c-2,0-3.7,0.5-5,1.5c-1.3,1-2.2,2.3-2.6,3.9v24.5h-9.6v-38.6h7.5
			l1,5.4h0.9c0.9-2,2.1-3.6,3.7-4.6c1.5-1.1,3.3-1.6,5.2-1.6c1.2,0,2.6,0.3,4.2,0.8L643.1,565.7z"/>
		<path fill="#FAD694" d="M680.4,591.4c-1.6,1.3-3.7,2.4-6.3,3.3c-2.7,0.9-5.5,1.4-8.6,1.4c-6.2,0-10.7-1.8-13.5-5.4
			c-2.9-3.6-4.3-8.6-4.3-14.9c0-6.7,1.6-11.8,4.9-15.3c3.2-3.5,7.8-5.2,13.7-5.2c1.9,0,3.8,0.3,5.7,0.8c1.9,0.5,3.5,1.4,5,2.6
			c1.5,1.2,2.6,2.8,3.5,4.9c0.9,2,1.3,4.5,1.3,7.5c0,1-0.1,2.2-0.2,3.4c-0.1,1.2-0.3,2.5-0.6,3.8H657c0.2,3.3,1.1,5.8,2.7,7.4
			c1.6,1.6,4.1,2.4,7.7,2.4c2.1,0,4.1-0.3,5.8-1c1.7-0.7,3-1.3,3.9-2L680.4,591.4z M666,563.3c-2.8,0-4.9,0.8-6.3,2.5
			c-1.4,1.6-2.2,3.7-2.4,6.3h15.5c0.2-2.7-0.3-4.8-1.4-6.4C670.4,564.1,668.6,563.3,666,563.3z"/>
		<path fill="#FAD694" d="M703,576.3l1.4,6h1.1l1-6.1l6.7-19.8h10.3l-16.4,39h-5.5l-17.1-39h11.1L703,576.3z"/>
		<path fill="#FAD694" d="M727.4,548c0-1.6,0.5-2.9,1.6-3.9c1-1.1,2.5-1.6,4.4-1.6c2,0,3.5,0.5,4.7,1.6c1.1,1.1,1.7,2.4,1.7,3.9
			c0,1.4-0.6,2.6-1.7,3.7c-1.1,1-2.7,1.5-4.7,1.5c-1.9,0-3.4-0.5-4.4-1.5C727.9,550.6,727.4,549.4,727.4,548z M728.8,556.3h9.6v38.6
			h-9.6V556.3z"/>
		<path fill="#FAD694" d="M749.3,584.9c0.6,0.3,1.4,0.7,2.2,1c0.8,0.3,1.8,0.7,2.7,1c1,0.3,2,0.5,3,0.7c1,0.2,2.1,0.3,3.1,0.3
			c1.6,0,2.8-0.3,3.7-0.8c0.9-0.5,1.3-1.5,1.3-3c0-1.2-0.6-2-1.8-2.6c-1.2-0.6-2.6-1.1-4.4-1.7c-1.3-0.4-2.6-0.9-4-1.4
			c-1.4-0.5-2.7-1.3-3.8-2.2c-1.2-0.9-2.1-2.1-2.9-3.6c-0.8-1.5-1.1-3.3-1.1-5.6c0-3.9,1.1-6.8,3.4-8.9c2.2-2,5.4-3.1,9.6-3.1
			c2.7,0,5.3,0.3,7.7,0.8c2.4,0.5,4.3,1.1,5.8,1.8l-2,7.8c-1.2-0.5-2.7-1-4.5-1.5c-1.8-0.5-3.7-0.8-5.6-0.8c-1.6,0-2.8,0.3-3.6,0.8
			c-0.8,0.5-1.2,1.4-1.2,2.7c0,1.1,0.6,2,1.8,2.5c1.2,0.6,2.7,1.1,4.4,1.7c1.3,0.4,2.6,0.8,4,1.4c1.4,0.5,2.7,1.2,3.8,2.1
			c1.1,0.9,2.1,2,2.8,3.4c0.8,1.4,1.1,3.2,1.1,5.3c0,4.1-1.2,7.3-3.7,9.6c-2.5,2.3-6.2,3.4-11.2,3.4c-2.7,0-5.2-0.3-7.5-0.8
			c-2.3-0.5-4.2-1.3-5.7-2.2L749.3,584.9z"/>
		<path fill="#FAD694" d="M780.6,589.9c0-1.8,0.5-3.2,1.6-4.3c1.1-1,2.5-1.5,4.3-1.5c1.8,0,3.3,0.5,4.4,1.5c1.1,1,1.6,2.5,1.6,4.3
			c0,1.7-0.5,3.1-1.6,4.2c-1.1,1.1-2.6,1.6-4.4,1.6c-1.8,0-3.2-0.5-4.3-1.6C781.2,593,780.6,591.6,780.6,589.9z"/>
	</g>
	<g>
		<path fill="#FAD694" d="M847.2,566.8c1.1-0.9,2.3-2,3.5-3.2c1.2-1.2,2.7-3.5,4.5-6.8c1.8-3.3,3-6.2,3.8-8.7
			c0.8-2.5,1.3-4.3,1.5-5.4l0.3-2c2.9,1.1,5.9,1.9,9,2.5c-1.6,4.3-2.9,7.5-3.9,9.8l-2.2,5h1.7l-0.2,5.3V592l0.2,8.1h-8.1l0.2-8.1
			v-23.8c-0.6,0.9-1.2,1.6-1.7,2.3c-0.5,0.7-1.6,2-3.4,3.9c-0.4-0.8-1-1.7-1.6-2.7C850.3,570.7,849.1,569,847.2,566.8z M872.4,587.1
			c2.3-2.1,3.9-3.7,4.6-4.9l0.9-1.4c4.9,2.1,8.7,3.8,11.4,5.1c2.2-2.1,4.3-4.4,6.4-6.7h-13.6l-5.3,0.2l1.2-3.2l2.1-7.6h-7.4
			l-5.9,0.3v-7.5l5.9,0.2h9.1l1-5.5h-6.9l-6.1,0.2v-7.6l6.1,0.2h8c0.2-1.5,0.5-3.1,0.8-4.8l0.2-2.6c1.9,0.3,4.8,0.7,8.8,1.1
			l-0.5,2.5l-0.7,3.8h7.7l7.3-0.2v7.6l-7.3-0.2h-9l-1.1,5.5h14l7-0.2v7.5l-7-0.3h-15.3l-1,3.8h16l4.6,5.1c-1.6,1.8-2.9,3.1-3.7,3.9
			l-5.8,5.5l-2.5,2.4c5.3,2.5,8.9,4.3,10.7,5.3c-1.9,2.1-3.3,3.8-4,5.1l-1,1.7c-2.4-1.5-5.9-3.6-10.5-6.3
			C887,592.4,880.6,589.8,872.4,587.1z"/>
		<path fill="#FAD694" d="M917.9,554.7v-7.3l6.9,0.3H935l-0.2-5.7h7.8l-0.1,5.7H953l-0.2-5.7h8.3l-0.1,5.7h9.2l7.7-0.3v7.3l-8-0.2
			H961l0.1,4.7h-8.3l0.2-4.7h-10.5l0.1,4.7h-7.8l0.2-4.7h-10.1L917.9,554.7z M930.3,568.3l-6.5,0.2v-7l6.8,0.2h28.7l6.9-0.1
			c0.4,0.3,0.6,0.6,0.8,0.8c0.2,0.2,0.8,1,1.9,2.3c1.1,1.4,1.6,2.2,1.6,2.5c0,0.3-0.2,0.6-0.7,0.9c-0.4,0.2-1,0.4-2,0.6
			c-1,0.2-2.8,0.8-5.3,1.9c-2.5,1-4.4,1.8-5.7,2.4c-1.2,0.6-3.4,1.7-6.5,3.4c-3.1,1.7-6.7,3.8-10.7,6.4c-4,2.6-6.3,4.3-6.9,5.3
			c-0.6,1-0.8,1.7-0.8,2.1c0,0.4,0.2,0.7,0.5,1.1c0.3,0.4,1,0.6,2.2,0.9c1.2,0.2,3.6,0.4,7.2,0.7c3.6,0.2,6.4,0.3,8.3,0.3l8.9-0.1
			c3.1,0,5.3-0.1,6.5-0.3c1.3-0.2,2.3-0.6,3-1.1c0.7-0.5,1.3-1.3,1.8-2.3c0.5-1,1-2.5,1.5-4.5c2.4,1.7,4.9,3.1,7.5,4.2
			c-0.2,0.8-0.8,2.3-1.6,4.6c-0.8,2.3-2.1,3.8-3.7,4.6c-1.7,0.7-3.4,1.3-5.1,1.5c-1.8,0.3-7.7,0.4-17.7,0.3
			c-10.8-0.1-18.1-0.7-22-1.9c-3.9-1.2-5.9-3.1-5.9-5.7c0-2.6,0.3-4.5,0.9-5.6c1.1-2.1,3.1-4.1,6-6.1c2.9-2,5.9-3.9,8.9-5.6l6.6-3.7
			l4.9-2.8H930.3z"/>
		<path fill="#FAD694" d="M990.1,590.8c1.9-1.3,3.7-3.1,5.3-5.3c1.6-2.2,2.8-4.4,3.7-6.4c0.9-2,1.5-3.8,1.7-5.4l0.2-1.7h-8.8
			l-5.9,0.2v-7l5.4,0.1h11.8l5.9-0.1c-0.1,1.6-0.1,3.1-0.2,4.4c-0.1,1.3-0.3,3.1-0.8,5.3c-0.4,2.2-1.1,4.4-2,6.4
			c-0.9,2.1-2,4-3.2,5.9c-1.2,1.9-2.4,3.5-3.5,4.8c-1.1,1.3-2.5,2.7-4.2,4.2c-1.7,1.5-3.4,2.8-5.1,3.8c-1.5-2.2-2.9-3.7-4.2-4.7
			l-2-1.5C986.2,593.2,988.2,592.1,990.1,590.8z M996.9,554.1l6.1,0.3h9.8l7.5-0.2c0.1,0.8,0.2,1.7,0.3,2.7c0.1,1,0.4,2.3,0.8,3.6
			c0.4,1.4,1,2.9,1.7,4.6c0.7,1.7,1.3,2.9,1.7,3.5l1.2,2c3-3.2,5.5-6.1,7.2-8.5c1.8-2.4,3.3-4.7,4.5-6.9c1.2,0.9,3.6,2.4,7.2,4.4
			c-4.9,6.2-9.8,12-14.9,17.5c2.4,3,4.8,5.6,7.2,7.6c2.4,2.1,4.4,3.5,5.9,4.4c1.6,0.9,3.4,1.7,5.4,2.4c-0.6,0.6-1.3,1.4-2.1,2.2
			c-0.7,0.8-1.8,2.5-3.3,4.9c-2.3-1.3-4.1-2.3-5.4-3.2c-1.3-0.8-3.1-2.3-5.5-4.3c-2.4-2-4.6-4.4-6.5-6.9c-1.9-2.6-3.7-5.5-5.5-8.9
			v20.7c0,1.1-0.4,2.1-1.1,2.9c-0.7,0.8-2.3,1.3-4.9,1.6c-2.5,0.3-4.7,0.4-6.5,0.3c-0.1-0.7-0.3-1.5-0.4-2.4
			c-0.2-0.9-0.5-1.8-0.9-2.7l-1.1-2.4c4.1,0.4,6.4,0.4,6.9,0c0.2-0.2,0.3-0.4,0.4-0.6c0.1-0.2,0.1-0.8,0.1-1.8v-30h-10.2l-5.8,0.2
			V554.1z M1006.3,540.1c2.2,0.8,9.7,3.3,22.3,7.6c-1.3,2.7-2,4.4-2.3,5.2l-0.9,2.4c-4.4-1.9-9.8-4-16-6.2l-5.6-1.9l-2.9-1
			C1002.8,544.3,1004.7,542.3,1006.3,540.1z"/>
		<path fill="#FAD694" d="M1052.8,571.9c0.6-3.6,1-6.2,1.2-7.9c0.1-1.7,0.3-4.2,0.4-7.6l0.1-2.9c2.6,0.5,5,0.8,7.1,0.9
			c-0.2,4.4-0.4,7.8-0.5,10.3c-0.2,2.5-0.4,4.5-0.6,6l-0.2,1.5C1057.5,571.9,1055,571.8,1052.8,571.9z M1062.4,541.7h8l-0.2,6.3v8.9
			c1.4-0.4,3.1-1,5.1-1.9c1,2.1,1.7,3.6,2,4.6l0.8,2.3v-1.7l-0.3-4.7l6.4,0.2h19.5l7.4-0.2l-0.2,6v19.8l0.2,5.7l-7.3-0.2h-19.8
			l-6.2,0.2l0.3-5v-17.5c-2.1,1-3.9,1.9-5.4,2.7c-0.2-0.7-0.4-1.6-0.7-2.8c-0.3-1.2-0.9-2.9-1.9-5v33.6l0.2,7.7h-8l0.2-7.9v-45.1
			L1062.4,541.7z M1072.7,597.8v-7.2l6.2,0.2h30.1l7.4-0.2v7.2l-6.5-0.3h-31.3L1072.7,597.8z M1074.6,544.7l6.7,0.2h28.3l5.8-0.2
			v7.2l-5.5-0.3h-28.6l-6.7,0.3V544.7z M1085.9,568h17.5v-5.6h-17.5V568z M1085.9,580.2h17.5v-5.6h-17.5v4.3V580.2z"/>
	</g>
</g>
</svg>
